<svg xmlns="http://www.w3.org/2000/svg" width="1400" height="950" viewBox="0 0 1400 950">
  <rect width="100%" height="100%" fill="#ffffff"/>
  <text x="50" y="50" font-family="Arial" font-size="22" font-weight="bold" fill="#333">Arquitectura multitenancy — Chronogest</text>

  <!-- Cliente -->
  <rect x="600" y="90" width="200" height="60" fill="#f0f0f0" stroke="#333" stroke-width="2"/>
  <text x="700" y="125" text-anchor="middle" font-family="Arial" font-size="16" fill="#333">Cliente / Navegador</text>

  <!-- Backend -->
  <rect x="450" y="200" width="500" height="320" fill="#e8f4fd" stroke="#333" stroke-width="2"/>
  <text x="470" y="230" font-family="Arial" font-size="16" fill="#333">NestJS Backend (instancia compartida)</text>

  <!-- Guards -->
  <rect x="490" y="260" width="160" height="60" fill="#fff3cd" stroke="#333" stroke-width="2"/>
  <text x="570" y="285" text-anchor="middle" font-family="Arial" font-size="16" fill="#333">JwtGuard</text>
  <text x="570" y="305" text-anchor="middle" font-family="Arial" font-size="12" fill="#555">valida JWT</text>

  <rect x="670" y="260" width="160" height="60" fill="#fff3cd" stroke="#333" stroke-width="2"/>
  <text x="750" y="285" text-anchor="middle" font-family="Arial" font-size="16" fill="#333">TenantMatchGuard</text>
  <text x="750" y="305" text-anchor="middle" font-family="Arial" font-size="12" fill="#555">tenant vs header</text>

  <rect x="490" y="340" width="160" height="60" fill="#fff3cd" stroke="#333" stroke-width="2"/>
  <text x="570" y="365" text-anchor="middle" font-family="Arial" font-size="16" fill="#333">RbacGuard</text>
  <text x="570" y="385" text-anchor="middle" font-family="Arial" font-size="12" fill="#555">roles</text>

  <rect x="670" y="340" width="160" height="60" fill="#fff3cd" stroke="#333" stroke-width="2"/>
  <text x="750" y="365" text-anchor="middle" font-family="Arial" font-size="16" fill="#333">TenantGuard</text>
  <text x="750" y="385" text-anchor="middle" font-family="Arial" font-size="12" fill="#555">resuelve tenant</text>

  <rect x="580" y="430" width="240" height="60" fill="#e2e3f3" stroke="#333" stroke-width="2"/>
  <text x="700" y="455" text-anchor="middle" font-family="Arial" font-size="16" fill="#333">TenantConnectionManager</text>
  <text x="700" y="475" text-anchor="middle" font-family="Arial" font-size="12" fill="#555">getTenantRepository()</text>

  <!-- Maestro -->
  <rect x="80" y="620" width="320" height="250" fill="#d4edda" stroke="#333" stroke-width="2"/>
  <text x="240" y="650" text-anchor="middle" font-family="Arial" font-size="16" fill="#333">sena_db (maestro)</text>
  <rect x="100" y="680" width="280" height="40" fill="#fff" stroke="#333" stroke-width="1"/>
  <text x="240" y="705" text-anchor="middle" font-family="Arial" font-size="14" fill="#333">tabla tenants</text>
  <rect x="100" y="730" width="280" height="40" fill="#fff" stroke="#333" stroke-width="1"/>
  <text x="240" y="755" text-anchor="middle" font-family="Arial" font-size="14" fill="#333">cg_usuarios (identidad)</text>
  <rect x="100" y="780" width="280" height="40" fill="#fff" stroke="#333" stroke-width="1"/>
  <text x="240" y="805" text-anchor="middle" font-family="Arial" font-size="14" fill="#333">catálogos legacy</text>
  <rect x="100" y="830" width="280" height="40" fill="#fff" stroke="#333" stroke-width="1"/>
  <text x="240" y="855" text-anchor="middle" font-family="Arial" font-size="14" fill="#333">cg_* históricos</text>

  <!-- Tenants -->
  <rect x="540" y="620" width="360" height="250" fill="#f8d7da" stroke="#333" stroke-width="2"/>
  <text x="720" y="650" text-anchor="middle" font-family="Arial" font-size="16" fill="#333">Bases de datos por tenant</text>
  <rect x="560" y="680" width="150" height="80" fill="#fff" stroke="#333" stroke-width="1"/>
  <text x="635" y="710" text-anchor="middle" font-family="Arial" font-size="15" fill="#333">tenant_caldas</text>
  <text x="635" y="735" text-anchor="middle" font-family="Arial" font-size="12" fill="#555">negocio Caldas</text>
  <rect x="730" y="680" width="150" height="80" fill="#fff" stroke="#333" stroke-width="1"/>
  <text x="805" y="710" text-anchor="middle" font-family="Arial" font-size="15" fill="#333">tenant_palmira</text>
  <text x="805" y="735" text-anchor="middle" font-family="Arial" font-size="12" fill="#555">negocio Palmira</text>
  <rect x="560" y="780" width="320" height="70" fill="#fff" stroke="#333" stroke-width="1"/>
  <text x="720" y="820" text-anchor="middle" font-family="Arial" font-size="13" fill="#333">Esquema ChronoGest + asistencia facial</text>

  <!-- Flechas -->
  <line x1="700" y1="150" x2="700" y2="200" stroke="#555" stroke-width="2"/>
  <polygon points="700,200 692,188 708,188" fill="#555"/>
  <text x="710" y="175" font-family="Arial" font-size="12" fill="#333">Authorization + x-tenant-id</text>

  <line x1="490" y1="460" x2="320" y2="620" stroke="#555" stroke-width="2"/>
  <polygon points="320,620 322,606 336,614" fill="#555"/>
  <text x="360" y="530" font-family="Arial" font-size="12" fill="#333">resolver tenant / autenticar</text>

  <line x1="760" y1="490" x2="760" y2="620" stroke="#555" stroke-width="2"/>
  <polygon points="760,620 752,608 768,608" fill="#555"/>
  <text x="770" y="560" font-family="Arial" font-size="12" fill="#333">consultas de negocio</text>

  <line x1="760" y1="490" x2="635" y2="620" stroke="#555" stroke-width="2"/>
  <polygon points="635,620 640,606 652,616" fill="#555"/>

  <!-- Leyenda -->
  <text x="1000" y="620" font-family="Arial" font-size="16" fill="#333">Leyenda</text>
  <rect x="1000" y="650" width="30" height="25" fill="#fff3cd" stroke="#333"/>
  <text x="1040" y="667" font-family="Arial" font-size="13" fill="#333">Guards / middleware</text>
  <rect x="1000" y="685" width="30" height="25" fill="#d4edda" stroke="#333"/>
  <text x="1040" y="702" font-family="Arial" font-size="13" fill="#333">Base maestra</text>
  <rect x="1000" y="720" width="30" height="25" fill="#f8d7da" stroke="#333"/>
  <text x="1040" y="737" font-family="Arial" font-size="13" fill="#333">Base tenant</text>
</svg>